{
	"asset":{
		"generator":"Khronos glTF Blender I/O v5.0.21",
		"version":"2.0"
	},
	"scene":0,
	"scenes":[
		{
			"name":"Scene",
			"nodes":[
				0
			]
		}
	],
	"nodes":[
		{
			"mesh":0,
			"name":"OBJ_Sakura_Flowers"
		}
	],
	"materials":[
		{
			"doubleSided":true,
			"name":"MAT_Sakura_Flowers",
			"normalTexture":{
				"index":0
			},
			"occlusionTexture":{
				"index":1
			},
			"pbrMetallicRoughness":{
				"baseColorTexture":{
					"index":2
				},
				"metallicFactor":0,
				"metallicRoughnessTexture":{
					"index":1
				}
			}
		}
	],
	"meshes":[
		{
			"name":"OBJ_Sakura_Flowers",
			"primitives":[
				{
					"attributes":{
						"POSITION":0,
						"NORMAL":1,
						"TEXCOORD_0":2
					},
					"indices":3,
					"material":0
				}
			]
		}
	],
	"textures":[
		{
			"sampler":0,
			"source":0
		},
		{
			"sampler":0,
			"source":1
		},
		{
			"sampler":0,
			"source":2
		}
	],
	"images":[
		{
			"mimeType":"image/png",
			"name":"TEX_Sakura_flowers_NRM",
			"uri":"TEX_Sakura_flowers_NRM.png"
		},
		{
			"mimeType":"image/png",
			"name":"TEX_Sakura_flowers_ORM",
			"uri":"TEX_Sakura_flowers_ORM.png"
		},
		{
			"mimeType":"image/jpeg",
			"name":"TEX_Sakura_flowers_COL",
			"uri":"TEX_Sakura_flowers_COL.jpg"
		}
	],
	"accessors":[
		{
			"bufferView":0,
			"componentType":5126,
			"count":6932,
			"max":[
				0.018300695344805717,
				0.039049725979566574,
				0.022845054045319557
			],
			"min":[
				-0.025214631110429764,
				-4.8689507821109146e-05,
				-0.021237842738628387
			],
			"type":"VEC3"
		},
		{
			"bufferView":1,
			"componentType":5126,
			"count":6932,
			"type":"VEC3"
		},
		{
			"bufferView":2,
			"componentType":5126,
			"count":6932,
			"type":"VEC2"
		},
		{
			"bufferView":3,
			"componentType":5123,
			"count":34248,
			"type":"SCALAR"
		}
	],
	"bufferViews":[
		{
			"buffer":0,
			"byteLength":83184,
			"byteOffset":0,
			"target":34962
		},
		{
			"buffer":0,
			"byteLength":83184,
			"byteOffset":83184,
			"target":34962
		},
		{
			"buffer":0,
			"byteLength":55456,
			"byteOffset":166368,
			"target":34962
		},
		{
			"buffer":0,
			"byteLength":68496,
			"byteOffset":221824,
			"target":34963
		}
	],
	"samplers":[
		{
			"magFilter":9729,
			"minFilter":9987
		}
	],
	"buffers":[
		{
			"byteLength":290320,
			"uri":"uploads_files_5439057_SakuraFlower_2k.bin"
		}
	]
}
